<svg width="16" height="16" viewBox="0 0 16 16" fill="none" xmlns="http://www.w3.org/2000/svg">
    <path d="M10 4 8 2m0 0L6 4m2-2v8m3.333-4h.534c.746 0 1.12 0 1.405.145.25.128.455.332.583.583.145.285.145.659.145 1.405v3.734c0 .746 0 1.12-.145 1.405-.128.25-.332.455-.583.583-.285.145-.659.145-1.405.145H4.133c-.746 0-1.12 0-1.405-.145a1.334 1.334 0 0 1-.583-.583C2 12.987 2 12.613 2 11.867V8.133c0-.746 0-1.12.145-1.405.128-.25.332-.455.583-.583C3.013 6 3.387 6 4.133 6h.534" stroke="#64748B" stroke-width="1.33" stroke-linecap="round" stroke-linejoin="round"/>
</svg>
