<svg width="20" height="20" viewBox="0 0 20 20" fill="none" xmlns="http://www.w3.org/2000/svg">
    <path d="M2.5 16.665a.835.835 0 1 0 0 1.67v-1.67zm15 1.67a.835.835 0 1 0 0-1.67v1.67zm-14.167-4.17a.835.835 0 1 0 0 1.67v-1.67zm13.334 1.67a.835.835 0 0 0 0-1.67v1.67zM4.165 15a.835.835 0 1 0 1.67 0h-1.67zm1.67-4.167a.835.835 0 0 0-1.67 0h1.67zM7.498 15a.835.835 0 1 0 1.67 0h-1.67zm1.67-4.167a.835.835 0 0 0-1.67 0h1.67zM10.832 15a.835.835 0 1 0 1.67 0h-1.67zm1.67-4.167a.835.835 0 0 0-1.67 0h1.67zM14.165 15a.835.835 0 1 0 1.67 0h-1.67zm1.67-4.167a.835.835 0 0 0-1.67 0h1.67zm1.665-2.5v.835a.835.835 0 0 0 .555-1.459l-.555.624zm-15 0-.555-.624A.835.835 0 0 0 2.5 9.17v-.836zm9.272-5.092-.555.625.555-.625zM10.478 2.3l-.24.8.24-.8zm-2.25.941-.554-.624.554.624zM9.522 2.3l.24.8-.24-.8zm-.084 2.922a.835.835 0 0 0 1.124 1.234L9.438 5.222zm1.13 1.229a.835.835 0 0 0-1.124-1.235l1.124 1.235zM2.5 18.335h15v-1.67h-15v1.67zm.833-2.5h13.334v-1.67H3.333v1.67zM5.835 15v-4.167h-1.67V15h1.67zm3.333 0v-4.167h-1.67V15h1.67zm3.334 0v-4.167h-1.67V15h1.67zm3.333 0v-4.167h-1.67V15h1.67zM11.217 3.866l5.728 5.091 1.11-1.248-5.729-5.092-1.11 1.249zM17.5 7.498h-15v1.67h15v-1.67zM3.055 8.958l5.728-5.092-1.11-1.249L1.946 7.71l1.11 1.248zm9.271-6.34c-.303-.27-.566-.505-.799-.682a2.533 2.533 0 0 0-.81-.436l-.479 1.6c.043.013.118.044.28.166.168.129.376.312.699.6l1.11-1.249zM8.783 3.865c.323-.288.53-.471.7-.6.16-.122.236-.153.279-.166l-.479-1.6c-.311.093-.57.253-.81.436-.233.177-.496.411-.8.681l1.11 1.249zM10.717 1.5a2.502 2.502 0 0 0-1.434 0l.479 1.6a.832.832 0 0 1 .476 0l.479-1.6zm-.155 4.956.006-.005-1.124-1.235-.006.006 1.124 1.234z" fill="#64748B"/>
</svg>
