<svg width="24" height="24" viewBox="0 0 24 24" fill="none" xmlns="http://www.w3.org/2000/svg">
    <path d="M12 3v-.835V3zM6 8.6h-.835H6zm14.414 8.302.496.672-.496-.672zm-.942-2.415.713-.436-.712.436zm1.143 2.057-.832-.073.832.073zM4.527 14.487l-.712-.436.712.436zm-1.142 2.057-.832.072.832-.072zm.201.358-.496.672.496-.672zM9 18l-.835-.001V18H9zm9.835-9.4c0-1.726-.735-3.369-2.023-4.57l-1.14 1.22c.964.9 1.493 2.106 1.493 3.35h1.67zm-2.023-4.57C15.527 2.83 13.795 2.165 12 2.165v1.67c1.388 0 2.708.515 3.673 1.416l1.14-1.221zM12 2.165c-1.795 0-3.527.665-4.812 1.865l1.14 1.22c.964-.9 2.284-1.415 3.672-1.415v-1.67zM7.188 4.03C5.9 5.23 5.165 6.874 5.165 8.6h1.67c0-1.244.53-2.45 1.492-3.35l-1.14-1.22zM5.165 8.6c0 2.538-.637 4.284-1.35 5.451l1.425.871c.88-1.439 1.595-3.488 1.595-6.322h-1.67zm15.02 5.451c-.713-1.167-1.35-2.913-1.35-5.451h-1.67c0 2.834.716 4.883 1.595 6.322l1.425-.87zm-1.791 3.784c.622 0 1.113 0 1.463-.013.174-.006.339-.017.48-.036.07-.01.152-.025.236-.05.074-.02.206-.065.337-.162l-.992-1.344c.098-.072.182-.095.19-.098.02-.005.021-.004-.005 0-.054.008-.15.016-.308.021-.311.012-.764.012-1.401.012v1.67zm.366-2.913c.39.637.67 1.096.853 1.418.092.162.148.269.178.335.015.034.015.04.011.026a.692.692 0 0 1-.02-.23l1.665.145a1.06 1.06 0 0 0-.046-.397 1.904 1.904 0 0 0-.09-.233 6.072 6.072 0 0 0-.247-.472c-.199-.35-.497-.837-.879-1.463l-1.425.871zm2.15 2.652c.1-.074.264-.203.383-.415.118-.211.143-.42.154-.543l-1.664-.145c-.005.06-.006-.023.053-.129.06-.105.131-.148.082-.111l.992 1.343zM3.815 14.051c-.382.626-.68 1.113-.88 1.463a6.087 6.087 0 0 0-.247.472 1.907 1.907 0 0 0-.09.233 1.06 1.06 0 0 0-.045.397l1.664-.145a.688.688 0 0 1-.02.23c-.003.014-.003.008.012-.026.03-.066.086-.173.178-.335.183-.322.464-.781.853-1.418l-1.425-.87zm1.791 2.114c-.637 0-1.09 0-1.401-.012a3.306 3.306 0 0 1-.308-.021c-.026-.004-.025-.005-.006 0 .01.003.093.026.19.098l-.99 1.344c.13.097.262.141.336.163.084.024.166.039.237.049.14.02.305.03.479.036.35.013.841.013 1.463.013v-1.67zm-3.053.451c.01.124.036.332.154.543.12.212.283.341.383.415l.992-1.344c-.05-.036.023.006.082.112.06.106.058.19.053.129l-1.664.145zM14.165 18c0 1.196-.97 2.165-2.165 2.165v1.67A3.835 3.835 0 0 0 15.835 18h-1.67zM12 20.165A2.165 2.165 0 0 1 9.835 18h-1.67A3.835 3.835 0 0 0 12 21.835v-1.67zm-6.394-2.33h3.396v-1.67H5.606v1.67zm4.229.166.002-1L8.167 17l-.002 1 1.67.002zm-.833-.166H15v-1.67H9.002v1.67zm5.998 0h3.394v-1.67H15v1.67zm.835.165v-1h-1.67v1h1.67z" fill="#64748B"/>
</svg>
