<svg width="24" height="24" viewBox="0 0 24 24" fill="none" xmlns="http://www.w3.org/2000/svg">
    <path d="M5 6.2c0-1.12 0-1.68.218-2.108a2 2 0 0 1 .874-.874C6.52 3 7.08 3 8.2 3h7.6c1.12 0 1.68 0 2.108.218a2 2 0 0 1 .874.874C19 4.52 19 5.08 19 6.2v11.69c0 1.005 0 1.508-.208 1.778a1 1 0 0 1-.755.388c-.34.013-.75-.28-1.567-.863L12 16l-4.47 3.193c-.818.584-1.226.876-1.567.863a1 1 0 0 1-.755-.388C5 19.398 5 18.895 5 17.89V6.2z" stroke="#64748B" stroke-width="1.67" stroke-linecap="round" stroke-linejoin="round"/>
</svg>
