<svg width="20" height="20" viewBox="0 0 20 20" fill="none" xmlns="http://www.w3.org/2000/svg">
    <path d="M4.167 5.167c0-.934 0-1.4.181-1.757.16-.314.415-.569.729-.728C5.433 2.5 5.9 2.5 6.833 2.5h6.334c.933 0 1.4 0 1.756.182.314.16.569.414.729.728.181.357.181.823.181 1.757v9.742c0 .837 0 1.256-.173 1.48a.833.833 0 0 1-.63.324c-.283.011-.624-.232-1.305-.719L10 13.334l-3.725 2.66c-.681.487-1.022.73-1.306.72a.833.833 0 0 1-.629-.324c-.173-.225-.173-.644-.173-1.48V5.166z" stroke="#94A3B8" stroke-width="1.67" stroke-linecap="round" stroke-linejoin="round"/>
</svg>
