<svg width="16" height="16" viewBox="0 0 16 16" fill="none" xmlns="http://www.w3.org/2000/svg">
    <path d="m3.092 13.782-.302.592.302-.592zm-.874-.874-.593.302.593-.302zm11.564 0 .592.302-.592-.302zm-.874.874.302.592-.302-.592zm0-8.897.302-.593-.302.593zm.874.874.592-.302-.592.302zm-10.69-.874-.302-.593.302.593zm-.874.874-.593-.302.593.302zm7.784-1.092a.665.665 0 1 0 1.33 0h-1.33zm-5.334 0a.665.665 0 1 0 1.33 0h-1.33zm5.27-2.522.303-.592-.302.592zm.583.583-.592.302.592-.302zm-4.46-.583-.302-.592.302.592zm-.582.583-.593-.302.593.302zm-3.46 3.956-.665-.038.664.038zm11.963 0 .664-.038-.664.038zM5.2 5.332h5.6v-1.33H5.2v1.33zm8.135 2.535V10.8h1.33V7.867h-1.33zM10.8 13.335H5.2v1.33h5.6v-1.33zM2.665 10.8V7.867h-1.33V10.8h1.33zM5.2 13.335c-.571 0-.96 0-1.26-.025-.292-.024-.442-.067-.546-.12l-.604 1.184c.323.165.668.23 1.042.261.367.03.819.03 1.368.03v-1.33zM1.335 10.8c0 .55 0 1 .03 1.368.03.374.096.719.26 1.042l1.186-.604c-.054-.104-.097-.254-.121-.547-.024-.3-.025-.688-.025-1.259h-1.33zm2.059 2.39a1.335 1.335 0 0 1-.583-.584l-1.186.604c.256.501.664.909 1.165 1.164l.604-1.184zm9.941-2.39c0 .571 0 .96-.025 1.26-.024.292-.067.441-.12.546l1.184.604c.165-.323.23-.668.261-1.042.03-.367.03-.819.03-1.368h-1.33zM10.8 14.665c.55 0 1 0 1.368-.03.374-.03.719-.096 1.042-.26l-.604-1.185c-.104.053-.254.096-.547.12-.3.024-.688.025-1.259.025v1.33zm2.39-2.059a1.335 1.335 0 0 1-.584.584l.604 1.184c.501-.255.909-.663 1.164-1.164l-1.184-.604zM10.8 5.332c.571 0 .96 0 1.26.025.292.024.441.067.546.12l.604-1.185c-.323-.165-.668-.23-1.042-.26-.367-.03-.819-.03-1.368-.03v1.33zm1.806.145c.251.128.456.332.584.584l1.184-.604a2.665 2.665 0 0 0-1.164-1.165l-.604 1.185zM5.2 4.002c-.55 0-1 0-1.368.03-.374.03-.719.095-1.042.26l.604 1.185c.104-.053.254-.096.547-.12.3-.025.688-.025 1.259-.025v-1.33zm-2.41.29c-.501.256-.909.663-1.165 1.165l1.186.604c.127-.252.332-.456.583-.584L2.79 4.292zm4.677-1.627h1.066v-1.33H7.467v1.33zm2.535 1.468v.534h1.33v-.534h-1.33zm-4.004.534v-.534h-1.33v.534h1.33zm2.535-2.002c.385 0 .633 0 .822.016.181.015.249.04.282.057l.604-1.185a2.035 2.035 0 0 0-.778-.198c-.255-.02-.567-.02-.93-.02v1.33zm2.799 1.468c0-.362 0-.674-.02-.93a2.034 2.034 0 0 0-.198-.777l-1.185.604c.017.033.042.1.057.282.015.189.016.437.016.821h1.33zM9.637 2.738a.668.668 0 0 1 .292.292l1.185-.604a1.998 1.998 0 0 0-.873-.873l-.604 1.185zm-2.17-1.403c-.363 0-.675 0-.93.02-.264.022-.526.07-.778.198l.604 1.185c.033-.017.1-.042.282-.057.19-.015.437-.016.822-.016v-1.33zM5.998 4.133c0-.384 0-.632.016-.821.015-.181.04-.249.057-.282l-1.185-.604a2.035 2.035 0 0 0-.197.777c-.021.256-.02.568-.02.93h1.33zm-.239-2.58a1.998 1.998 0 0 0-.873.873l1.185.604a.668.668 0 0 1 .292-.292L5.76 1.553zM8 8.668c-1.406 0-2.722-.544-3.741-1.145a10.337 10.337 0 0 1-1.78-1.319l-.921.96C1.7 7.3 2.45 8 3.582 8.668 4.71 9.333 6.264 9.998 8 9.998v-1.33zm-5.335-.801c0-.497 0-.857.017-1.144l-1.328-.077c-.02.334-.019.739-.019 1.22h1.33zm.017-1.144c.022-.37.068-.544.129-.662l-1.186-.604c-.185.363-.245.755-.27 1.189l1.327.077zm10.84-.519c-.099.095-.768.72-1.78 1.319-1.02.601-2.336 1.145-3.742 1.145v1.33c1.736 0 3.291-.665 4.418-1.33a11.641 11.641 0 0 0 2.024-1.504l-.92-.96zm1.143 1.663c0-.482 0-.887-.02-1.221l-1.327.077c.017.287.017.647.017 1.144h1.33zm-.02-1.221c-.024-.434-.085-.826-.27-1.19l-1.185.605c.06.118.106.292.128.662l1.328-.077z" fill="#64748B"/>
</svg>
