<svg width="20" height="20" viewBox="0 0 20 20" fill="none" xmlns="http://www.w3.org/2000/svg">
    <path d="M10 14.167V7.5m3.333 3.334H6.667M5.833 2.5v1.667M14.167 2.5v1.667m-9 13.333h9.666c.934 0 1.4 0 1.757-.182.314-.16.569-.414.728-.728.182-.357.182-.823.182-1.757v-8c0-.933 0-1.4-.182-1.756a1.666 1.666 0 0 0-.728-.729c-.357-.181-.823-.181-1.757-.181H5.167c-.934 0-1.4 0-1.757.181-.314.16-.569.415-.728.729C2.5 5.433 2.5 5.9 2.5 6.833v8c0 .934 0 1.4.182 1.757.16.314.414.569.728.728.357.182.823.182 1.757.182z" stroke="#64748B" stroke-width="1.67" stroke-linecap="round" stroke-linejoin="round"/>
</svg>
