<svg width="24" height="24" viewBox="0 0 24 24" fill="none" xmlns="http://www.w3.org/2000/svg">
    <path d="m2.986 21.008-.827-.118a.835.835 0 0 0 1.022.93l-.195-.812zm2.762-5.763-.59-.59.59.59zm-1.583 1.742-.693-.466.693.466zm-1.132 3.689-.827-.118.827.118zm.443-2.312-.789-.274.789.274zm4.921-.11-.59-.591.59.59zm-1.47 1.354-.485-.679.485.68zm-3.07 1.19-.195-.812.195.812zm1.923-.547.326.77-.326-.77zM20.238 3.59l.59-.59-.59.59zm0 2.828.59.59-.59-.59zM17.41 3.59l.59.59-.59-.59zM13 20.165a.835.835 0 1 0 0 1.67v-1.67zm8 1.67a.835.835 0 1 0 0-1.67v1.67zM19.648 5.828 7.807 17.663l1.18 1.18L20.829 7.01l-1.18-1.181zM6.338 15.836 18 4.18 16.82 3 5.157 14.654l1.18 1.18zm-2.526 5.29.048-.332-1.654-.236-.047.332 1.653.236zm-.15-1.14-.872.21.391 1.624.872-.21-.391-1.624zM14.847 6.151l2.824 2.832 1.183-1.18-2.825-2.831-1.182 1.179zm-9.69 8.504c-.816.817-1.305 1.301-1.685 1.865l1.385.933c.27-.4.62-.755 1.482-1.617l-1.181-1.181zM3.86 20.794c.172-1.207.246-1.7.404-2.155l-1.577-.55c-.223.643-.317 1.325-.48 2.469l1.653.236zm-.388-4.274a6.835 6.835 0 0 0-.785 1.57l1.577.549c.146-.42.346-.818.593-1.186l-1.385-.933zm4.335 1.143c-.73.73-1.031 1.027-1.365 1.266l.971 1.359c.472-.338.882-.752 1.575-1.444l-1.181-1.181zM4.053 21.61c.952-.23 1.52-.363 2.053-.59l-.652-1.537c-.378.16-.788.261-1.792.503l.39 1.624zm2.389-2.68c-.308.22-.64.405-.988.553l.652 1.537c.461-.195.9-.441 1.307-.732l-.971-1.359zM19.648 4.18a1.165 1.165 0 0 1 0 1.648l1.18 1.18a2.835 2.835 0 0 0 0-4.009l-1.18 1.181zM20.828 3a2.835 2.835 0 0 0-4.009 0L18 4.18a1.165 1.165 0 0 1 1.648 0L20.828 3zM13 21.834h8v-1.67h-8v1.67z" fill="#64748B"/>
</svg>
