<svg width="16" height="16" viewBox="0 0 16 16" fill="none" xmlns="http://www.w3.org/2000/svg">
    <path d="M12.667 6v5.867c0 .746 0 1.12-.146 1.405-.127.25-.331.455-.582.583-.285.145-.659.145-1.405.145H5.466c-.747 0-1.12 0-1.405-.145a1.334 1.334 0 0 1-.583-.583c-.146-.285-.146-.659-.146-1.405V4.133c0-.746 0-1.12.146-1.405.128-.25.332-.455.583-.583C4.347 2 4.72 2 5.467 2h3.2m4 4-4-4m4 4H10.8c-.747 0-1.12 0-1.405-.145a1.333 1.333 0 0 1-.583-.583c-.145-.285-.145-.659-.145-1.405V2M6 11.333h4M6 8.667h4M6 6h.667" stroke="#64748B" stroke-width="1.33" stroke-linecap="round" stroke-linejoin="round"/>
</svg>
