<svg width="24" height="24" viewBox="0 0 24 24" fill="none" xmlns="http://www.w3.org/2000/svg">
    <path d="m6.892 17.79.048-.08a12.356 12.356 0 0 0 1.9-6.607 3.552 3.552 0 0 1 7.102 0c0 .904-.061 1.793-.18 2.664m-1.88 6.077a19.432 19.432 0 0 0 1.324-3.413m3.409 1.005c.573-2.012.88-4.137.88-6.333A7.103 7.103 0 0 0 8.838 4.95M4.4 14.978a8.844 8.844 0 0 0 .889-3.875 7.07 7.07 0 0 1 .95-3.551m6.153 3.552c0 3.123-.896 6.036-2.444 8.498" stroke="#64748B" stroke-width="2" stroke-linecap="round" stroke-linejoin="round"/>
</svg>
