<svg width="25" height="24" viewBox="0 0 25 24" fill="none" xmlns="http://www.w3.org/2000/svg">
    <path d="M3.5 17h18m-9-9-2 4m2-4 2 4m-2-4H8a2.5 2.5 0 1 1 0-5c3.5 0 4.5 5 4.5 5zm0 0H17a2.5 2.5 0 0 0 0-5c-3.5 0-4.5 5-4.5 5zM6.7 21h11.6c1.12 0 1.68 0 2.108-.218a2 2 0 0 0 .874-.874c.218-.428.218-.988.218-2.108v-6.6c0-1.12 0-1.68-.218-2.108a2 2 0 0 0-.874-.874C19.98 8 19.42 8 18.3 8H6.7c-1.12 0-1.68 0-2.108.218a2 2 0 0 0-.874.874C3.5 9.52 3.5 10.08 3.5 11.2v6.6c0 1.12 0 1.68.218 2.108a2 2 0 0 0 .874.874C5.02 21 5.58 21 6.7 21z" stroke="#7F56D9" stroke-width="1.67" stroke-linecap="round" stroke-linejoin="round"/>
</svg>
