<svg width="25" height="24" viewBox="0 0 25 24" fill="none" xmlns="http://www.w3.org/2000/svg">
    <path d="M7.263 3.927c-.031 1.36-.225 4.4-1.197 7.413-1.113 3.446 1.13 8.034 6.935 9.226m2.204-10.223c-.14.293-.726.726-.866.726m2.11 11.003c1.788-2.26-2.009-3.671-4.833-5.303-2.824-1.632-3.17-4.33-2.103-7.782.604-1.952.667-3.98.575-5.396m-.169-1.394c.065.326.13.807.169 1.394m0 0c1.082.28 4.449.92 5.664 4.208.136.368 1.091 1.178 3.823 1.466-.265.537-.549 1.454-.265 1.804.728.895.1 1.266.1 1.266m1.277.838c.216.257.641.546 1.276 1.167.82.802.547 1.495-1.547 2.45-1.6.731-3.271 1.645-3.864 2.238M13.997 6.933c-.625.273-1.914 1.222-2.068 2.837M4.087 5.164c-.082 1.12-.369 3.785-.86 5.488-.615 2.13-1.27 3.768 0 6.144" stroke="#7F56D9" stroke-width="1.67" stroke-linecap="round" stroke-linejoin="round"/>
</svg>
