<svg width="25" height="24" viewBox="0 0 25 24" fill="none" xmlns="http://www.w3.org/2000/svg">
    <path d="M18.972 12.1h2.395m-.832-4.755h2.394m-5.444-2.797h2.395M2.61 18.42v-8.78a7.148 7.148 0 1 1 14.295 0v8.78m3.264-7.719v2.596m1.563-7.35v2.595m-3.05-5.393v2.596M2.1 22.006c.218-2.11 1.897-4.063 3.265-5.093a7.117 7.117 0 0 0 4.392 1.508c1.67 0 3.205-.572 4.421-1.531 1.271 1.062 2.959 2.87 3.148 5.116m-2.8-10.987a4.77 4.77 0 1 1-9.448-.93 4.774 4.774 0 0 0 3.82-2.844 4.77 4.77 0 0 0 5.516 2.74c.073.333.112.679.112 1.034z" stroke="#7F56D9" stroke-width="1.67" stroke-linecap="round" stroke-linejoin="round"/>
</svg>
