<svg width="24" height="24" viewBox="0 0 24 24" fill="none" xmlns="http://www.w3.org/2000/svg">
    <path d="m15 6-3-3m0 0L9 6m3-3v12m5-6h.8c1.12 0 1.68 0 2.108.218a2 2 0 0 1 .874.874C21 10.52 21 11.08 21 12.2v5.6c0 1.12 0 1.68-.218 2.108a2 2 0 0 1-.874.874C19.48 21 18.92 21 17.8 21H6.2c-1.12 0-1.68 0-2.108-.218a2 2 0 0 1-.874-.874C3 19.48 3 18.92 3 17.8v-5.6c0-1.12 0-1.68.218-2.108a2 2 0 0 1 .874-.874C4.52 9 5.08 9 6.2 9H7" stroke="#7F56D9" stroke-width="2" stroke-linecap="round" stroke-linejoin="round"/>
</svg>
