<svg width="25" height="24" viewBox="0 0 25 24" fill="none" xmlns="http://www.w3.org/2000/svg">
    <path d="M9.28 14.375a1 1 0 1 0-1.56 1.25l1.56-1.25zm8 1.25a1 1 0 1 0-1.56-1.25l1.56 1.25zM5.97 7.078l.615.79-.614-.79zm2.6-2.022.615.79-.614-.79zm7.86 0-.615.79.614-.79zm2.6 2.022-.615.79.614-.79zm2.034 11.738-.891-.454.891.454zm-1.748 1.748-.454-.891.454.891zm1.4-11.986.804-.595-.804.595zm.636 1.3.963-.27-.963.27zm-9.897-6.672-.262-.965.262.965zm2.09 0-.261.966.261-.966zM3.648 9.878l.963.27-.963-.27zm.636-1.3.804.594-.804-.594zm-.348 10.238.891-.454-.891.454zm1.748 1.748.454-.891-.454.891zM8.5 15a127.227 127.227 0 0 0-.78.626l.001.001.003.004.007.008a3.654 3.654 0 0 0 .094.11 7.508 7.508 0 0 0 1.194 1.065c.799.57 2 1.186 3.481 1.186v-2c-.919 0-1.718-.384-2.319-.814a5.53 5.53 0 0 1-.859-.763 2.477 2.477 0 0 1-.038-.044l-.006-.007a.045.045 0 0 0 .002.003L8.5 15zm4 3c1.481 0 2.682-.616 3.481-1.186a7.499 7.499 0 0 0 1.194-1.065 4.823 4.823 0 0 0 .104-.122v-.001h.001L16.5 15a139.274 139.274 0 0 1-.78-.626l.002-.002-.006.007-.038.044a5.537 5.537 0 0 1-.86.763c-.6.43-1.4.814-2.318.814v2zm-8-3.4v-2.47h-2v2.47h2zm2.085-6.732 2.6-2.023-1.228-1.578-2.6 2.022 1.228 1.579zm9.23-2.023 2.6 2.023 1.228-1.58-2.6-2.021-1.228 1.578zM20.5 12.13v2.47h2v-2.47h-2zM15.1 20H9.9v2h5.2v-2zm5.4-5.4c0 1.137 0 1.929-.051 2.546-.05.605-.142.953-.276 1.216l1.782.908c.302-.592.428-1.232.487-1.961.059-.718.058-1.605.058-2.709h-2zM15.1 22c1.104 0 1.991 0 2.709-.058.729-.06 1.369-.185 1.961-.487l-.908-1.782c-.263.134-.611.226-1.216.276-.617.05-1.41.051-2.546.051v2zm5.073-3.638a3 3 0 0 1-1.311 1.311l.908 1.782a4.999 4.999 0 0 0 2.185-2.185l-1.782-.908zM18.415 7.868c.952.74 1.271 1 1.497 1.304l1.608-1.189c-.427-.578-1.015-1.024-1.877-1.694l-1.228 1.579zM22.5 12.13c0-1.092.009-1.83-.185-2.521l-1.926.539c.102.365.111.777.111 1.982h2zm-2.588-2.958a3 3 0 0 1 .477.976l1.926-.54a4.998 4.998 0 0 0-.795-1.625l-1.608 1.19zM9.185 5.845c1.478-1.15 1.996-1.529 2.531-1.673l-.523-1.93c-1.017.275-1.904.988-3.236 2.025l1.228 1.578zm7.858-1.578c-1.332-1.037-2.219-1.75-3.236-2.026l-.523 1.93c.535.145 1.053.525 2.531 1.674l1.228-1.578zm-5.327-.095a3 3 0 0 1 1.568 0l.523-1.93a5 5 0 0 0-2.614 0l.523 1.93zM4.5 12.13c0-1.205.009-1.617.111-1.982l-1.926-.54c-.194.693-.185 1.43-.185 2.522h2zm.857-5.841c-.862.67-1.45 1.116-1.877 1.694l1.608 1.19c.226-.306.545-.565 1.497-1.305l-1.228-1.58zm-.746 3.859a3 3 0 0 1 .477-.976L3.48 7.983a5 5 0 0 0-.795 1.626l1.926.539zM2.5 14.6c0 1.104 0 1.991.058 2.709.06.729.185 1.369.487 1.96l1.782-.907c-.134-.263-.226-.611-.276-1.216-.05-.617-.051-1.41-.051-2.546h-2zM9.9 20c-1.137 0-1.929 0-2.546-.051-.605-.05-.953-.142-1.216-.276l-.908 1.782c.592.302 1.233.428 1.961.487.718.059 1.605.058 2.709.058v-2zm-6.855-.73a5 5 0 0 0 2.185 2.185l.908-1.782a3 3 0 0 1-1.311-1.311l-1.782.908z" fill="#6941C6"/>
</svg>
