<svg width="24" height="24" viewBox="0 0 24 24" fill="none" xmlns="http://www.w3.org/2000/svg">
    <path d="m5.137 12.764 3.018-3.677c.308-.396.462-.594.543-.816a1.5 1.5 0 0 0 .086-.615c-.016-.235-.109-.468-.295-.934l-.71-1.777c-.277-.69-.415-1.034-.652-1.26A1.5 1.5 0 0 0 6.37 3.3c-.322-.061-.682.029-1.402.21L3 4c0 10 7 17 17 17l.492-1.968c.18-.72.27-1.08.21-1.402a1.5 1.5 0 0 0-.387-.757c-.226-.238-.57-.375-1.26-.651l-1.586-.634c-.531-.213-.797-.32-1.062-.327a1.5 1.5 0 0 0-.679.14c-.24.111-.442.313-.847.718l-3.053 3.054M13 7a5 5 0 0 1 3.95 3.95M13 3a9 9 0 0 1 7.95 7.94" stroke="#7F56D9" stroke-width="2" stroke-linecap="round" stroke-linejoin="round"/>
</svg>
