<svg width="24" height="24" viewBox="0 0 24 24" fill="none" xmlns="http://www.w3.org/2000/svg">
    <path d="m3.94 16 .895-.444L3.94 16zm-.935 5-.924-.384A1 1 0 0 0 3.005 22v-1zm16.999-9a8 8 0 0 1-8 8v2c5.523 0 10-4.477 10-10h-2zm-16 0a8 8 0 0 1 8-8V2c-5.523 0-10 4.477-10 10h2zm8-8a8 8 0 0 1 8 8h2c0-5.523-4.477-10-10-10v2zM4.835 15.556A7.963 7.963 0 0 1 4.004 12h-2c0 1.595.374 3.105 1.04 4.446l1.791-.89zM12.004 20H3.005v2H12.005v-2zm-9 1 .924.384v-.001l.002-.003c0-.003.002-.006.004-.01A5.833 5.833 0 0 0 4 21.204a21.47 21.47 0 0 0 .667-1.959c.164-.572.317-1.217.384-1.823.062-.56.076-1.279-.216-1.866l-1.79.89c-.002-.002.005.012.014.049.009.036.017.088.023.158.01.141.006.325-.019.548a9.53 9.53 0 0 1-.318 1.496 19.463 19.463 0 0 1-.65 1.884l-.01.028-.003.006.923.385z" fill="#7F56D9"/>
</svg>
