<svg width="143" height="32" viewBox="0 0 143 32" fill="none" xmlns="http://www.w3.org/2000/svg">
    <circle cx="11.25" cy="15.25" r="11.25" fill="#7F56D9"/>
    <path d="M15.66 16.578c-2.241 0-3.613 2.066-3.613 3.857 0 .96.376 1.828.873 2.56s1.147 1.373 1.773 1.894a14.909 14.909 0 0 0 2.327 1.578 5.263 5.263 0 0 0 .278.137.943.943 0 0 0 .135.045c.02.005.095.023.192.023s.172-.018.191-.023a.882.882 0 0 0 .136-.045c.03-.012.059-.026.084-.038.053-.025.119-.059.194-.099a14.909 14.909 0 0 0 2.328-1.578c.625-.521 1.275-1.162 1.772-1.895.497-.731.873-1.6.873-2.559 0-1.79-1.372-3.857-3.612-3.857-.838 0-1.487.282-1.966.629a3.285 3.285 0 0 0-1.966-.629z" fill="#FCD34D"/>
    <path d="M41.148 23c3.008 0 4.834-1.523 4.834-4.004 0-1.865-1.337-3.242-3.252-3.428v-.078c1.446-.234 2.569-1.553 2.569-3.066 0-2.139-1.65-3.516-4.21-3.516H35.24V23h5.908zM37.76 10.871h2.695c1.504 0 2.354.694 2.354 1.924 0 1.309-.987 2.05-2.744 2.05H37.76v-3.974zm0 10.166v-4.404h2.705c1.933 0 2.95.752 2.95 2.187 0 1.446-.987 2.217-2.843 2.217H37.76zm14.838-6.719c1.397 0 2.334 1.026 2.383 2.49h-4.834c.098-1.445 1.084-2.49 2.451-2.49zm2.393 5.586c-.264.86-1.123 1.426-2.256 1.426-1.592 0-2.608-1.113-2.608-2.773v-.147h7.237v-.79c0-3.145-1.836-5.186-4.776-5.186-2.988 0-4.883 2.158-4.883 5.43 0 3.3 1.876 5.341 4.98 5.341 2.452 0 4.268-1.348 4.581-3.3h-2.275zm8.324 1.426c-1.054 0-1.758-.537-1.758-1.387 0-.82.674-1.347 1.846-1.425l2.393-.147v.791c0 1.25-1.104 2.168-2.48 2.168zm-.732 1.836c1.328 0 2.627-.693 3.222-1.816h.05V23h2.343v-7.129c0-2.08-1.67-3.437-4.238-3.437-2.637 0-4.287 1.386-4.395 3.32h2.256c.156-.86.889-1.416 2.041-1.416 1.201 0 1.934.625 1.934 1.709v.742l-2.735.156c-2.52.157-3.935 1.26-3.935 3.096 0 1.865 1.455 3.125 3.457 3.125zM79.94 12.648h-2.432v5.987c0 1.504-.87 2.5-2.275 2.5-1.368 0-2.09-.801-2.09-2.285v-6.202h-2.432v6.69c0 2.392 1.426 3.848 3.672 3.848 1.572 0 2.617-.723 3.164-1.983h.049V23h2.344V12.648zm3.266-2.421v2.421h-1.485v1.875h1.485v5.723c0 2.012.879 2.803 3.115 2.803.517 0 .996-.04 1.26-.098v-1.855c-.157.029-.47.049-.694.049-.86 0-1.25-.391-1.25-1.24v-5.382h1.953v-1.875h-1.953v-2.421h-2.431zm7.797 16.62c2.363 0 3.506-.869 4.394-3.437l3.74-10.762H96.58L94.14 20.93h-.04l-2.44-8.282h-2.657l3.682 10.362c.01.03-.137.547-.137.576-.274.957-.791 1.338-1.797 1.338-.147 0-.576-.01-.703-.04v1.925c.127.029.82.039.957.039zM114.958 23h2.656l-5-14.092h-2.842l-5 14.092h2.598l1.201-3.643h5.186L114.958 23zm-3.828-11.602h.068l1.963 6.016h-4.004l1.973-6.016zm14.037 1.075c-1.504 0-2.676.761-3.262 1.962h-.048v-1.787h-2.373v13.76h2.431v-5.127h.049c.566 1.162 1.738 1.885 3.242 1.885 2.598 0 4.258-2.041 4.258-5.342 0-3.31-1.67-5.351-4.297-5.351zm-.742 8.7c-1.514 0-2.52-1.317-2.529-3.349.009-2.012 1.015-3.35 2.529-3.35 1.572 0 2.549 1.31 2.549 3.35 0 2.051-.977 3.35-2.549 3.35zm12.885-8.7c-1.504 0-2.676.761-3.262 1.962H134v-1.787h-2.373v13.76h2.431v-5.127h.049c.566 1.162 1.738 1.885 3.242 1.885 2.598 0 4.258-2.041 4.258-5.342 0-3.31-1.67-5.351-4.297-5.351zm-.742 8.7c-1.514 0-2.52-1.317-2.529-3.349.009-2.012 1.015-3.35 2.529-3.35 1.572 0 2.549 1.31 2.549 3.35 0 2.051-.977 3.35-2.549 3.35z" fill="#334155"/>
</svg>
