<svg width="20" height="20" viewBox="0 0 20 20" fill="none" xmlns="http://www.w3.org/2000/svg">
    <path d="m3.865 15.56-.38.745.38-.744zm-1.093-1.092-.744.38.744-.38zm14.455 0 .744.38-.744-.38zm-1.092 1.093.38.744-.38-.744zm0-11.122.38-.744-.38.744zm1.092 1.093.744-.38-.744.38zM3.865 4.439l-.38-.744.38.744zM2.772 5.532l-.744-.38.744.38zm.216.44a.835.835 0 0 0-.928 1.389l.928-1.389zM7.07 9.704l-.464.694.001.002.463-.696zm5.904 0 .463.695-.463-.695zm4.967-2.31a.835.835 0 1 0-.926-1.389l.926 1.39zm-8.694 3.512.194-.812-.194.812zm1.55 0-.194-.812.194.812zM6.5 5.002h7v-1.67h-7v1.67zm10.165 3.165v3.666h1.67V8.167h-1.67zM13.5 14.998h-7v1.67h7v-1.67zM3.335 11.833V8.167h-1.67v3.666h1.67zM6.5 14.998c-.714 0-1.199 0-1.574-.031-.365-.03-.552-.084-.682-.15l-.758 1.488c.405.206.835.288 1.304.326.459.038 1.024.037 1.71.037v-1.67zm-4.835-3.165c0 .687 0 1.252.037 1.71.038.469.12.9.326 1.304l1.488-.758c-.066-.13-.12-.316-.15-.682-.03-.375-.031-.86-.031-1.574h-1.67zm2.58 2.984a1.665 1.665 0 0 1-.729-.728l-1.488.758c.32.628.83 1.138 1.458 1.458l.758-1.488zm12.42-2.984c0 .714 0 1.2-.031 1.574-.03.366-.084.552-.15.682l1.487.758c.207-.404.289-.835.327-1.304.038-.458.037-1.023.037-1.71h-1.67zM13.5 16.668c.686 0 1.251 0 1.71-.037.468-.038.9-.12 1.304-.326l-.758-1.488c-.13.066-.317.12-.682.15-.375.03-.86.031-1.574.031v1.67zm2.983-2.579c-.16.313-.414.568-.727.728l.758 1.488a3.335 3.335 0 0 0 1.457-1.458l-1.488-.758zM13.5 5.002c.714 0 1.199 0 1.574.03.365.03.552.085.682.151l.758-1.488c-.405-.206-.835-.288-1.304-.327-.459-.037-1.024-.036-1.71-.036v1.67zm4.835 3.165c0-.687 0-1.252-.037-1.71-.038-.469-.12-.9-.326-1.304l-1.489.758c.067.13.12.316.15.682.031.375.032.86.032 1.574h1.67zm-2.58-2.984c.314.16.569.414.728.728l1.488-.758a3.335 3.335 0 0 0-1.457-1.458l-.758 1.488zM6.5 3.332c-.686 0-1.251-.001-1.71.036-.469.039-.9.12-1.304.327l.758 1.488c.13-.066.317-.12.682-.15.375-.03.86-.031 1.574-.031v-1.67zM3.335 8.167c0-.714 0-1.2.031-1.574.03-.366.084-.552.15-.682l-1.488-.758c-.206.404-.288.835-.326 1.304-.038.458-.037 1.023-.037 1.71h1.67zm.15-4.472c-.627.32-1.137.83-1.457 1.458l1.488.758c.16-.314.415-.568.728-.728l-.758-1.488zM2.06 7.361l4.546 3.037.928-1.388-4.546-3.038-.928 1.389zm11.378 3.038 4.503-3.004-.926-1.39L12.51 9.01l.927 1.39zm-6.83 0c1.012.674 1.69 1.139 2.445 1.32l.388-1.625c-.397-.095-.787-.34-1.91-1.085l-.924 1.39zm5.904-1.39c-1.122.745-1.512.99-1.91 1.085l.39 1.624c.755-.18 1.432-.645 2.445-1.319l-.925-1.39zm-3.46 2.71a4.169 4.169 0 0 0 1.94 0l-.39-1.625c-.381.091-.779.091-1.16 0l-.39 1.624z" fill="#9E77ED"/>
</svg>
