<svg width="25" height="24" viewBox="0 0 25 24" fill="none" xmlns="http://www.w3.org/2000/svg">
    <path d="m10.955 9.832.663.507a.835.835 0 0 0-.1-1.124l-.563.617zM8.22 13.407l-.663-.508a.835.835 0 0 0 .149 1.166l.514-.658zm.789.616-.514.658a.835.835 0 0 0 1.159-.128l-.645-.53zm2.958-3.6.434-.713a.835.835 0 0 0-1.079.183l.645.53zm1.257.765-.433.713a.835.835 0 0 0 1.114-.23l-.68-.483zm4.142-7.15-.82.157.82-.157zm-2.687-.74.576.605-.576-.604zM9.575 8.576 8.969 8a.835.835 0 0 0 .043 1.192l.563-.617zm11.455 7.262a.835.835 0 1 0-.252-1.65l.252 1.65zm-8.552.367-.092-.83.092.83zm-3.748.333-.074.832.058.005.059-.003-.043-.834zm-4.747 0 .315.774-.315-.774zm2.962 4.142-.207.808.207-.808zm14.314.543a.835.835 0 1 0 .236-1.653l-.236 1.653zM10.292 9.324 7.556 12.9l1.326 1.015 2.736-3.575-1.326-1.015zm-2.587 4.74.789.617 1.028-1.316-.79-.616-1.027 1.316zm1.948.49 2.958-3.6-1.29-1.06-2.958 3.599 1.29 1.06zm1.88-3.417 1.257.764.867-1.427L12.4 9.71l-.868 1.427zm2.371.534a77.904 77.904 0 0 0 2.704-4.076c.443-.723.846-1.426 1.13-2.011a6.77 6.77 0 0 0 .347-.824c.069-.21.163-.547.1-.878l-1.64.313c-.024-.124.016-.147-.047.044-.049.15-.135.355-.26.614-.251.514-.622 1.165-1.054 1.87a76.256 76.256 0 0 1-2.641 3.982l1.361.966zm4.282-7.789c-.159-.832-.783-1.499-1.548-1.775-.807-.292-1.764-.15-2.537.588l1.153 1.208c.312-.298.601-.304.817-.226.258.094.435.314.474.518l1.64-.313zM14.1 2.695C13.214 3.54 10.3 6.595 8.97 8L10.18 9.15c1.347-1.422 4.225-4.436 5.074-5.246L14.1 2.695zM9.012 9.192l1.381 1.257 1.125-1.234-1.381-1.258-1.125 1.235zm11.766 4.994c-2.037.312-6.549.982-8.392 1.189l.185 1.66c1.885-.211 6.432-.888 8.46-1.198l-.253-1.65zm-11.974 1.52c-.662-.06-1.697-.13-2.66-.151a17.65 17.65 0 0 0-1.363.015c-.37.022-.799.066-1.113.194l.63 1.547c-.004.001.04-.015.158-.033.11-.016.251-.03.423-.04.345-.02.77-.023 1.23-.014.915.02 1.911.088 2.547.145l.148-1.663zm-5.136.058c-.325.132-.645.35-.832.703-.196.367-.18.748-.08 1.054.183.55.66.965 1.077 1.202l.823-1.453a1.09 1.09 0 0 1-.244-.186c-.065-.068-.074-.102-.07-.087a.27.27 0 0 1 .011.095.383.383 0 0 1-.044.161c-.055.104-.112.099-.011.058l-.63-1.547zm8.718-.39a78.88 78.88 0 0 1-3.353.309l.11 1.666a80.4 80.4 0 0 0 3.428-.315l-.185-1.66zm-3.353.309c-.147.01-.263.016-.346.02l.086 1.668.37-.022-.11-1.666zm-5.2 3.04c.37.21.924.329 1.447.386a7.497 7.497 0 0 0 1.84-.025c.62-.09 1.296-.282 1.835-.673.575-.417.978-1.055.968-1.905l-1.67.02c.003.239-.084.392-.279.533-.231.168-.606.302-1.092.372a5.831 5.831 0 0 1-1.42.018 4.214 4.214 0 0 1-.555-.095 1.868 1.868 0 0 1-.246-.082l-.004-.002h-.001l-.823 1.453zm-.42-.8c-.097 1.11.687 2.887 3.325 3.564l.415-1.617c-1.955-.502-2.093-1.613-2.077-1.801l-1.663-.145zm3.325 3.564c1.561.401 3.104.396 4.423.3.658-.047 1.277-.118 1.807-.174.545-.059.98-.1 1.325-.1v-1.67c-.448 0-.969.052-1.502.109-.548.058-1.128.125-1.75.17-1.24.09-2.578.084-3.888-.252l-.415 1.617zm7.555.027c.824 0 2.464-.097 3.936-.179.745-.041 1.454-.08 2.018-.101.282-.01.52-.018.706-.019.093 0 .168 0 .225.002l.08.005.237-1.653a4.124 4.124 0 0 0-.553-.024 24.73 24.73 0 0 0-.76.02c-.58.023-1.302.061-2.046.103-1.508.083-3.08.176-3.843.176v1.67z" fill="#7F56D9"/>
</svg>
