<svg width="16" height="16" viewBox="0 0 16 16" fill="none" xmlns="http://www.w3.org/2000/svg">
    <path d="M5.333 6.335a.665.665 0 1 0 0 1.33v-1.33zm5.334 1.33a.665.665 0 1 0 0-1.33v1.33zM5.333 9.002a.665.665 0 1 0 0 1.33v-1.33zm2 1.33a.665.665 0 0 0 0-1.33v1.33zm-4.707.335.596-.296-.595.296zM2.003 14l-.614-.256a.665.665 0 0 0 .614.921V14zm3.33-6.335h5.334v-1.33H5.333v1.33zm0 2.667h2v-1.33h-2v1.33zM13.338 8a5.335 5.335 0 0 1-5.335 5.335v1.33A6.665 6.665 0 0 0 14.668 8h-1.33zM2.668 8a5.335 5.335 0 0 1 5.335-5.335v-1.33A6.665 6.665 0 0 0 1.338 8h1.33zm5.335-5.335A5.335 5.335 0 0 1 13.338 8h1.33a6.665 6.665 0 0 0-6.665-6.665v1.33zm-4.781 7.706A5.31 5.31 0 0 1 2.668 8h-1.33c0 1.063.249 2.07.693 2.963l1.191-.592zm4.78 2.964H2.005L2.002 14v.665H8.004v-1.33zM2.004 14l.614.255.001-.002.003-.007a3.394 3.394 0 0 0 .044-.11 14.304 14.304 0 0 0 .445-1.306c.11-.382.21-.812.256-1.216.04-.372.05-.851-.144-1.243l-1.191.592a.7.7 0 0 1 .025.138 2.02 2.02 0 0 1-.012.367c-.034.3-.114.65-.213.997a12.963 12.963 0 0 1-.44 1.275l-.002.004.614.256z" fill="#94A3B8"/>
</svg>
