<svg width="20" height="20" viewBox="0 0 20 20" fill="none" xmlns="http://www.w3.org/2000/svg">
    <path d="M18.338 10a.835.835 0 1 0-1.67 0h1.67zm-8.335-6.665a.835.835 0 1 0 0-1.67v1.67zm-6.72 9.999.748-.372-.748.372zm-.78 4.166-.77-.321a.835.835 0 0 0 .77 1.156V17.5zM16.178 3.823c.65.65.65 1.704 0 2.354l1.181 1.181a3.335 3.335 0 0 0 0-4.716l-1.18 1.18zm0 2.354c-.65.65-1.704.65-2.354 0l-1.181 1.181a3.335 3.335 0 0 0 4.716 0l-1.18-1.18zm-2.354 0a1.665 1.665 0 0 1 0-2.354l-1.181-1.181a3.335 3.335 0 0 0 0 4.716l1.18-1.18zm0-2.354c.65-.65 1.704-.65 2.354 0l1.181-1.181a3.335 3.335 0 0 0-4.716 0l1.18 1.18zM16.668 10a6.665 6.665 0 0 1-6.665 6.665v1.67A8.335 8.335 0 0 0 18.338 10h-1.67zm-13.33 0a6.665 6.665 0 0 1 6.665-6.665v-1.67A8.335 8.335 0 0 0 1.668 10h1.67zm.693 2.962A6.634 6.634 0 0 1 3.338 10h-1.67c0 1.33.312 2.588.867 3.706l1.496-.744zm5.972 3.703h-7.5v1.67h7.5v-1.67zm-7.5.835.772.32.001-.003a1.17 1.17 0 0 1 .016-.038 11.925 11.925 0 0 0 .19-.494c.119-.322.272-.765.41-1.247a9.57 9.57 0 0 0 .319-1.52c.051-.466.064-1.065-.18-1.556l-1.495.744.012.04c.007.03.014.073.018.131.01.118.006.271-.015.457a7.938 7.938 0 0 1-.265 1.246 16.222 16.222 0 0 1-.541 1.57l-.01.023a.446.446 0 0 0-.002.005v.001l.77.321z" fill="#9E77ED"/>
</svg>
