<svg width="16" height="16" viewBox="0 0 16 16" fill="none" xmlns="http://www.w3.org/2000/svg">
    <path d="M8 5.333v3.334m0 2h.007m-4.716.328c-.23-.23-.346-.346-.428-.48a1.334 1.334 0 0 1-.16-.386c-.036-.153-.036-.316-.036-.642V6.513c0-.326 0-.489.036-.642.033-.136.087-.266.16-.386.082-.134.198-.25.428-.48l1.714-1.713c.23-.231.346-.346.48-.429.12-.073.25-.127.385-.16.154-.036.317-.036.643-.036h2.974c.326 0 .489 0 .642.037.136.032.266.086.386.16.134.082.25.197.48.428l1.713 1.713c.23.23.346.346.429.48.073.12.127.25.16.386.036.153.036.316.036.642v2.974c0 .326 0 .489-.037.642a1.332 1.332 0 0 1-.16.386c-.082.134-.197.25-.428.48l-1.713 1.714c-.23.23-.346.345-.48.428-.12.073-.25.127-.386.16-.153.036-.316.036-.642.036H6.513c-.326 0-.49 0-.643-.037a1.332 1.332 0 0 1-.385-.16c-.134-.082-.25-.197-.48-.427L3.29 10.995z" stroke="#64748B" stroke-width="1.33" stroke-linecap="round" stroke-linejoin="round"/>
</svg>
