<svg width="17" height="16" viewBox="0 0 17 16" fill="none" xmlns="http://www.w3.org/2000/svg">
    <path d="M10.833 5.667h.007M7.5 5h.007M5.5 7.667h.007M8.5 14a6 6 0 1 1 6-6 2 2 0 0 1-2 2h-.4c-.248 0-.372 0-.475.016-.57.09-1.018.538-1.109 1.109-.016.103-.016.227-.016.475v.4a2 2 0 0 1-2 2zm2.667-8.333a.333.333 0 1 1-.667 0 .333.333 0 0 1 .667 0zM7.833 5a.333.333 0 1 1-.666 0 .333.333 0 0 1 .666 0zm-2 2.667a.333.333 0 1 1-.666 0 .333.333 0 0 1 .666 0z" stroke="#64748B" stroke-width="1.33" stroke-linecap="round" stroke-linejoin="round"/>
</svg>
