<svg width="20" height="20" viewBox="0 0 20 20" fill="none" xmlns="http://www.w3.org/2000/svg">
    <path fill-rule="evenodd" clip-rule="evenodd" d="M10 13.254c.769 0 1.478-.255 2.047-.686.143-.108.352-.084.451.065l2.992 4.488a.194.194 0 0 1-.23.29l-2.347-.88a7.28 7.28 0 1 1 3.822-3.905l-.847-.335-.542 1.065.69.572a7.313 7.313 0 0 1-.802.989l-.636-.707.748-.86-1.06-.75-.556.646-1.107-1.23c.194-.235.357-.497.482-.779l1.155.479.265-.846-1.177-.433A3.397 3.397 0 1 0 10 13.253zm4.668-3.179c-.01.145-.1.595-.143.801l1.602.42c.138-.29.152-.68.164-.99a6.74 6.74 0 0 1 .01-.23h-1.633z" fill="#64748B"/>
</svg>
