<svg width="21" height="20" viewBox="0 0 21 20" fill="none" xmlns="http://www.w3.org/2000/svg">
    <g clip-path="url(#zejvem2rla)">
        <path d="M6.79 18.333c7.547 0 11.675-6.412 11.675-11.973 0-.183 0-.364-.012-.544A8.47 8.47 0 0 0 20.5 3.637a8.02 8.02 0 0 1-2.357.662 4.205 4.205 0 0 0 1.804-2.327 8.098 8.098 0 0 1-2.605 1.021 4.077 4.077 0 0 0-2.328-1.271 4.018 4.018 0 0 0-2.602.443 4.171 4.171 0 0 0-1.803 1.975 4.311 4.311 0 0 0-.26 2.691 11.424 11.424 0 0 1-4.684-1.276 11.71 11.71 0 0 1-3.773-3.12 4.305 4.305 0 0 0-.45 3.066 4.214 4.214 0 0 0 1.72 2.551A3.99 3.99 0 0 1 1.3 7.525v.054c0 .971.328 1.913.928 2.665a4.088 4.088 0 0 0 2.364 1.46 3.997 3.997 0 0 1-1.853.072 4.212 4.212 0 0 0 1.46 2.091 4.043 4.043 0 0 0 2.374.832 8.158 8.158 0 0 1-2.867 1.492 8.036 8.036 0 0 1-3.206.252 11.408 11.408 0 0 0 6.29 1.887" fill="#1DA1F2"/>
    </g>
    <defs>
        <clipPath id="zejvem2rla">
            <path fill="#fff" transform="translate(.5)" d="M0 0h20v20H0z"/>
        </clipPath>
    </defs>
</svg>
