<svg width="21" height="20" viewBox="0 0 21 20" fill="none" xmlns="http://www.w3.org/2000/svg">
    <path d="M9.87 3.478c.193-.555.29-.832.432-.909a.417.417 0 0 1 .396 0c.142.077.239.354.432.91l1.275 3.668c.055.158.082.237.132.296.043.052.1.092.162.118.071.028.155.03.322.034l3.883.079c.588.012.881.018.998.13a.417.417 0 0 1 .123.376c-.03.16-.263.337-.732.691l-3.095 2.347c-.133.101-.2.152-.24.217a.418.418 0 0 0-.062.19c-.006.077.019.157.067.317l1.125 3.718c.17.562.255.843.185.99a.417.417 0 0 1-.32.232c-.16.021-.402-.146-.884-.482l-3.188-2.218c-.138-.096-.206-.144-.28-.162a.415.415 0 0 0-.201 0c-.075.018-.144.066-.28.162L6.93 16.4c-.482.336-.723.503-.884.482a.417.417 0 0 1-.32-.233c-.07-.146.015-.427.185-.99l1.125-3.717c.048-.16.073-.24.067-.316a.417.417 0 0 0-.062-.191c-.04-.066-.107-.116-.24-.217L3.707 8.871c-.469-.354-.703-.532-.732-.691a.417.417 0 0 1 .122-.376c.118-.112.411-.118.999-.13l3.883-.08c.167-.003.25-.005.322-.033a.417.417 0 0 0 .162-.118c.05-.06.077-.138.132-.296L9.87 3.478z" stroke="#6A717F" stroke-width="1.67" stroke-linecap="round" stroke-linejoin="round"/>
</svg>
