<svg width="16" height="16" viewBox="0 0 16 16" fill="none" xmlns="http://www.w3.org/2000/svg">
    <path d="M8.43 1.44a1 1 0 0 0-.86 0 1.04 1.04 0 0 0-.43.414c-.069.11-.138.251-.206.388L5.497 5.154l-3.215.47c-.15.022-.306.044-.432.075a1.04 1.04 0 0 0-.527.282 1 1 0 0 0-.265.818c.034.259.18.442.26.537.085.099.198.208.307.315L3.95 9.916l-.548 3.198c-.026.151-.053.306-.063.435-.01.125-.02.36.105.588a1 1 0 0 0 .696.506 1.04 1.04 0 0 0 .592-.082c.12-.05.259-.123.394-.194L8 12.856l2.874 1.511c.135.071.274.145.394.194.116.048.335.13.591.082a1 1 0 0 0 .697-.506 1.04 1.04 0 0 0 .105-.588c-.01-.129-.037-.284-.063-.434l-.548-3.2 2.325-2.264c.11-.107.222-.216.306-.315a1.04 1.04 0 0 0 .26-.537 1 1 0 0 0-.265-.819 1.04 1.04 0 0 0-.526-.281c-.126-.03-.281-.053-.433-.075l-3.214-.47-1.437-2.912a5.172 5.172 0 0 0-.205-.388 1.04 1.04 0 0 0-.43-.414z" fill="#FD9B28"/>
</svg>
