<svg width="16" height="16" viewBox="0 0 16 16" fill="none" xmlns="http://www.w3.org/2000/svg">
    <path d="M7.496 2.783c.155-.444.232-.666.346-.728a.333.333 0 0 1 .316 0c.114.062.191.284.346.728l1.02 2.935c.044.126.066.19.105.236.035.042.08.074.13.094.057.024.124.025.258.028l3.106.063c.47.01.705.014.799.104.081.077.118.19.098.3-.023.128-.21.27-.585.554l-2.476 1.877c-.107.081-.16.122-.193.174a.334.334 0 0 0-.05.152c-.004.062.016.126.055.254l.9 2.974c.135.45.203.675.147.791a.334.334 0 0 1-.256.186c-.128.018-.321-.117-.707-.385l-2.55-1.775c-.11-.076-.165-.114-.225-.13a.333.333 0 0 0-.16 0c-.06.016-.115.054-.225.13l-2.55 1.775c-.386.269-.579.403-.707.386a.333.333 0 0 1-.256-.187c-.056-.116.012-.341.148-.791l.9-2.974c.038-.128.058-.192.053-.254a.333.333 0 0 0-.05-.152c-.032-.052-.085-.093-.192-.174L2.565 7.097c-.374-.284-.561-.426-.585-.553a.333.333 0 0 1 .098-.301c.094-.09.329-.094.799-.104l3.106-.063c.134-.003.2-.004.258-.028a.333.333 0 0 0 .13-.094c.04-.047.061-.11.105-.236l1.02-2.935z" stroke="#fff" stroke-width="1.33" stroke-linecap="round" stroke-linejoin="round"/>
</svg>
