<svg width="24" height="24" viewBox="0 0 24 24" fill="none" xmlns="http://www.w3.org/2000/svg">
    <path d="M9 17h2m-2-4h3M9 9h1m3-6H8.2c-1.12 0-1.68 0-2.108.218a2 2 0 0 0-.874.874C5 4.52 5 5.08 5 6.2v11.6c0 1.12 0 1.68.218 2.108a2 2 0 0 0 .874.874C6.52 21 7.08 21 8.2 21H12m1-18 6 6m-6-6v2.8c0 1.12 0 1.68.218 2.108a2 2 0 0 0 .874.874C14.52 9 15.08 9 16.2 9H19m0 0v1m2 5.21c-.068.004-.264 0-.333 0-1.025 0-1.96-.458-2.667-1.21-.708.752-1.642 1.21-2.667 1.21-.069 0-.265.004-.333 0v1.188c0 2.214 1.275 4.075 3 4.602 1.725-.527 3-2.388 3-4.602V15.21z" stroke="#94A3B8" stroke-width="1.67" stroke-linecap="round" stroke-linejoin="round"/>
</svg>
