<svg width="24" height="24" viewBox="0 0 24 24" fill="none" xmlns="http://www.w3.org/2000/svg">
    <path d="m10 18 1.333-4.444S11.5 13 12 13s.667.556.667.556M14 18l-1.333-4.45M17 10V8A5 5 0 0 0 7 8v2m3.5 7h3m-4.7 4h6.4c1.68 0 2.52 0 3.162-.327a3 3 0 0 0 1.311-1.311C20 18.72 20 17.88 20 16.2v-1.4c0-1.68 0-2.52-.327-3.162a3 3 0 0 0-1.311-1.311C17.72 10 16.88 10 15.2 10H8.8c-1.68 0-2.52 0-3.162.327a3 3 0 0 0-1.311 1.311C4 12.28 4 13.12 4 14.8v1.4c0 1.68 0 2.52.327 3.162a3 3 0 0 0 1.311 1.311C6.28 21 7.12 21 8.8 21z" stroke="#94A3B8" stroke-width="1.67" stroke-linecap="round" stroke-linejoin="round"/>
</svg>
