<svg width="25" height="24" viewBox="0 0 25 24" fill="none" xmlns="http://www.w3.org/2000/svg">
    <path d="M16.31 10.404c-.59-2.418-2.825-3.37-3.868-3.545-.845.119-2.967 1.187-3.485 3.545-.594 3.44 2.88 6.02 4.14 5.544 1.262-.476 3.95-2.522 3.213-5.544zm0 0c.481-2.232-.18-3.981-.581-4.51.802-1.969-1.27-3.069-2.407-3.373-1.298-.277-2.018.955-2.215 1.605-1.386.742-3.77 2.971-2.108 6.105m2.005 5.146c.048.507-.057 1.756-.857 2.689m0 0c-1.697.063-5.158 1.023-5.425 4.354H20.67c-.267-3.331-3.728-4.29-5.426-4.354m-5.097 0c2.114 1.96 4.279.817 5.097 0m-.856-2.69c-.048.508.057 1.757.856 2.69" stroke="#7F56D9" stroke-width="1.67" stroke-linecap="round" stroke-linejoin="round"/>
</svg>
